/* XPM */
static char * data_xpm[] = {
"40 28 2 1",
" 	c None",
".	c #000000",
"                                        ",
"                                        ",
". . ... . . . . ... . . ... ...  ..  .. ",
". . .   . . . . .   . . .     . .   . . ",
"... ..  ... ... ..  ... ..   .  ..   .  ",
"  .   .   .   .   .   .   .   . . . . . ",
"  . ..    .   . ..    . ..  ..   .  ..  ",
"                                        ",
" .   .  . . . . ... . .  .   .  . . ... ",
". . . . . . . . .   . . . . . . . . .   ",
"... ... ... ... ..  ... ...  .. ... ..  ",
". . . .   .   .   .   . . .   .   .   . ",
" .   .    .   . ..    .  .  ..    . ..  ",
"                                        ",
" ..  .. ...  .  ...  ..  .. ... ...  .. ",
". . .     . ..    . . . . .   .   . . . ",
" .  ..   .   .   .   .   .   .   .   .  ",
". . . .   .  .    . . . . .   . .   . . ",
"..   .  ..  ... ..  ..  ..  ..  .   ..  ",
"                                        ",
" .   .. ...  .   .   .  ... . .  .. . . ",
". . . .   . . . . . . . .   . . .   . . ",
" ..  .   .   ..  ..  .. ..  ... ..  ... ",
"  . . . .     .   .   .   .   . . .   . ",
"..  ..  .   ..  ..  ..  ..    .  .    . ",
"                                        ",
"                                        ",
"                                        "};
