/* XPM */
static char * submesh_xpm[] = {
"44 24 10 1",
" 	c None",
".	c #F1661A",
"+	c #000000",
"@	c #F4F112",
"#	c #12F417",
"$	c #FFFFFF",
"%	c #1247F4",
"&	c #E112F4",
"*	c #F41257",
"=	c #F45D12",
".....++@@@@@@@@@@@@@@@@@@@@@@@@@@@@@+++.....",
"....++@@@@@@@@@@@@@@@@@@@@@@@@@@@@@@@@++++..",
"....+@@@@@@@+++++++++++++@@@@@@@@@@@@@@@@++.",
"...++@@@@++++###########++++++++@@@@@@@@@@@+",
"..++@@@$$$$$$$$$$$$$$$$$$$$$$$$$$$$$$$$$@@@+",
".++@@@@$+########################++@@@@$@@@@",
"++@@@@@$+####+++++++++############++@@@$@@@@",
"+@@@@@@$####+%%%%%%%%%+++###########+@@$@@@@",
"+@@@@@@$###++%%%%%%%%%%%%+++########++@$@@@@",
"@@@@@@@$##++%%%%%%%%%%%%%%%%+++#######+$@@@@",
"@@@@@@+$##+%%%%%%%%+++++++%%%%+++#####+$@@@@",
"@@@@@@+$##+%%%%%++++&&&&&++++%%%+#####+$@@@@",
"@@@@@+#$#++%%%%++&&&&&&&&&&&&++%++#####$@@@@",
"@@@+++#$#+%%%%++&&&&&++&&&&&&&+%%++####$@@@@",
"++++###$#+%%%++&&&&++*+++&&&&&++%%+####$@@@@",
"#######$++%%%+&&&&++****++&&&&&+%%+####$@@@@",
"#######$+%%++&&&&+*******+&&&&&+%%+####$@@@@",
"######+$+%%+&&&&++*******+&&&&&+%%+####$@@@+",
"+++++++$%%++&&&&+********+&&&&++%%+####$@@@+",
"%%%%%%%$$$$$$$$$$$$$$$$$$$$$$$$$$$$$$$$$@@++",
"%%%%%%%%%+&&&&&&+*******+&&&&++%++####+@@@+=",
"%%%%%%%%++&&&&&&+******++&&&++ ++####++@@++=",
"%%%%%%%%+&&&&&&&++++++++&&+++ ++####++@@@+==",
"%%%%%%%+&&&&&&&&&&&&&&&&++    +#####+@@@@+=="};
